<?xml version="1.0" standalone="no"?>
<!DOCTYPE svg PUBLIC "-//W3C//DTD SVG 20010904//EN"
 "http://www.w3.org/TR/2001/REC-SVG-20010904/DTD/svg10.dtd">
<svg version="1.0" xmlns="http://www.w3.org/2000/svg"
 width="4096.000000pt" height="4096.000000pt" viewBox="0 0 4096.000000 4096.000000"
 preserveAspectRatio="xMidYMid meet">

<g transform="translate(0.000000,4096.000000) scale(0.100000,-0.100000)"
fill="#000000" stroke="none">
<path d="M5830 24985 c-211 -29 -428 -101 -605 -201 -208 -118 -243 -150
-1118 -1023 l-828 -826 4 -480 c3 -453 5 -486 26 -580 77 -345 240 -647 474
-878 l58 -58 -76 -76 c-240 -242 -406 -570 -465 -916 -18 -107 -20 -165 -20
-561 l0 -441 833 -831 c804 -804 882 -877 1039 -977 321 -204 766 -298 1145
-241 373 55 673 203 967 475 78 73 79 73 94 51 20 -30 192 -178 272 -234 201
-139 417 -230 665 -280 93 -19 142 -22 320 -22 189 0 222 3 336 27 229 48 429
133 634 267 103 68 161 123 963 924 l852 851 0 345 c0 190 -5 402 -10 471 -23
313 -118 596 -287 849 -66 99 -225 289 -258 307 -11 7 0 23 52 78 256 271 412
573 475 923 18 104 21 167 25 557 l5 440 -839 836 c-498 497 -868 858 -913
891 -150 111 -266 173 -435 236 -193 72 -335 100 -540 109 -460 19 -913 -152
-1241 -469 -50 -48 -94 -88 -97 -88 -4 0 -39 32 -79 71 -84 83 -226 191 -330
253 -321 189 -730 272 -1098 221z m465 -915 c291 -93 496 -313 571 -610 11
-47 17 -130 21 -295 l5 -230 -704 -701 -703 -702 -105 -51 c-139 -67 -200 -82
-355 -88 -111 -5 -143 -2 -215 16 -251 62 -460 234 -565 465 -60 132 -68 176
-72 446 l-4 245 678 676 c714 712 742 737 893 799 118 49 188 60 345 56 110
-3 155 -8 210 -26z m2493 14 c42 -8 107 -28 144 -43 148 -62 180 -91 891 -800
l678 -676 -4 -250 c-4 -288 -13 -332 -95 -490 -37 -70 -67 -110 -142 -186
-180 -182 -371 -258 -625 -246 -172 8 -298 48 -435 140 -25 16 -354 338 -732
716 l-688 686 0 200 c0 224 8 293 49 412 93 272 324 475 611 539 80 18 257 17
348 -2z m-858 -2559 l585 -585 -585 -585 c-322 -322 -588 -585 -592 -585 -4 0
-272 263 -595 585 l-588 585 590 585 c325 321 592 585 595 585 3 0 268 -263
590 -585z m-2778 -1049 c40 -8 105 -26 143 -41 164 -61 160 -58 903 -799 l693
-691 -4 -240 c-4 -225 -5 -246 -31 -328 -46 -153 -110 -259 -223 -369 -83 -81
-171 -138 -272 -177 -109 -42 -181 -54 -306 -54 -177 2 -320 46 -470 146 -37
24 -322 301 -737 716 l-678 676 0 218 c0 243 11 322 62 444 110 266 366 468
643 506 70 9 208 6 277 -7z m4728 -11 c36 -9 110 -39 165 -66 221 -107 386
-321 436 -563 15 -72 19 -135 19 -306 l0 -215 -682 -681 c-413 -412 -705 -695
-738 -716 -175 -113 -368 -160 -562 -138 -341 39 -620 282 -710 619 -17 62
-21 118 -25 310 l-6 233 674 675 c371 371 702 695 736 719 99 72 237 128 358
147 62 10 271 -1 335 -18z"/>
<path d="M18420 23445 c-162 -45 -297 -161 -350 -303 -27 -71 -37 -205 -21
-284 36 -172 170 -311 355 -367 85 -26 261 -29 351 -6 141 37 275 144 333 266
58 122 62 267 12 402 -41 110 -166 227 -297 277 -77 30 -298 38 -383 15z"/>
<path d="M33756 23359 c-425 -49 -724 -230 -876 -532 -81 -160 -114 -303 -126
-542 l-7 -135 -164 0 -163 0 0 -385 0 -385 165 0 165 0 0 -1125 0 -1125 465 0
465 0 0 1125 0 1125 248 2 247 3 3 383 2 382 -251 0 -252 0 6 93 c14 236 109
325 360 335 l117 4 0 394 0 394 -167 -1 c-93 -1 -199 -5 -237 -10z"/>
<path d="M23400 21135 l0 -2005 460 0 459 0 3 898 c4 999 0 938 74 1091 63
128 179 223 329 267 83 25 267 25 350 0 167 -50 296 -167 355 -323 48 -127 50
-169 50 -1079 l0 -854 460 0 460 0 0 913 c0 545 -4 956 -10 1022 -33 351 -138
602 -334 800 -203 205 -426 298 -743 312 -265 11 -486 -40 -688 -158 -95 -56
-216 -158 -265 -224 l-35 -47 -3 696 -2 696 -460 0 -460 0 0 -2005z"/>
<path d="M12240 21030 l0 -1900 943 0 c1000 0 1074 3 1272 50 413 97 688 345
786 710 21 74 23 108 23 265 0 154 -3 191 -22 259 -67 240 -246 469 -452 575
-76 39 -187 81 -215 81 -33 0 -12 16 48 38 186 66 355 210 455 385 128 226
141 596 28 851 -106 240 -358 441 -657 525 -195 54 -199 54 -1241 58 l-968 4
0 -1901z m1713 1136 c122 -34 208 -100 254 -195 26 -52 28 -65 28 -181 0 -108
-3 -132 -22 -173 -35 -75 -77 -121 -141 -155 -115 -62 -141 -65 -539 -70
l-363 -4 0 402 0 402 363 -5 c295 -3 373 -7 420 -21z m62 -1470 c186 -53 291
-167 316 -344 11 -78 -2 -183 -31 -249 -27 -60 -100 -135 -164 -166 -107 -53
-147 -57 -573 -57 l-393 0 0 421 0 421 393 -4 c332 -4 401 -7 452 -22z"/>
<path d="M27190 22520 l0 -370 -185 0 -185 0 0 -385 0 -385 185 0 185 0 0
-650 c0 -687 4 -776 46 -939 63 -247 192 -416 404 -525 206 -107 322 -127 758
-133 l332 -5 -2 393 -3 394 -230 5 c-213 5 -233 7 -272 27 -48 26 -78 61 -95
112 -9 26 -13 211 -15 679 l-4 642 305 0 306 0 0 385 0 385 -305 0 -305 0 0
370 0 370 -460 0 -460 0 0 -370z"/>
<path d="M20621 22169 c-401 -77 -717 -325 -910 -715 -115 -233 -171 -496
-171 -802 0 -684 288 -1211 791 -1446 315 -147 702 -157 1011 -26 145 62 329
206 410 322 l43 61 3 -234 c3 -241 -7 -383 -34 -479 -44 -151 -144 -272 -276
-335 -110 -52 -175 -65 -318 -65 -150 0 -260 23 -359 75 -106 56 -162 112
-211 210 l-42 85 -454 0 -454 0 7 -47 c9 -76 48 -221 82 -309 139 -358 487
-643 924 -755 288 -74 652 -84 944 -28 420 81 761 329 940 683 82 163 129 314
157 507 14 93 16 307 16 1693 l0 1586 -460 0 -460 0 -2 -212 -3 -213 -25 40
c-53 87 -182 204 -305 277 -78 47 -196 94 -304 120 -128 31 -398 35 -540 7z
m618 -790 c261 -42 459 -228 533 -499 31 -118 32 -356 0 -473 -59 -215 -173
-358 -357 -447 -109 -52 -168 -63 -311 -58 -103 4 -129 9 -199 36 -194 77
-338 244 -397 461 -18 63 -22 106 -22 246 -1 190 14 264 77 394 49 101 177
226 287 280 129 63 254 82 389 60z"/>
<path d="M17505 22169 c-266 -38 -561 -225 -725 -458 l-45 -64 -3 251 -2 252
-460 0 -460 0 0 -1510 0 -1510 460 0 460 0 0 714 c0 743 5 866 42 984 29 94
53 138 110 199 63 66 111 94 230 135 92 31 95 32 331 36 l237 4 0 489 0 489
-57 -1 c-32 -1 -85 -5 -118 -10z"/>
<path d="M18120 20640 l0 -1510 465 0 465 0 0 1510 0 1510 -465 0 -465 0 0
-1510z"/>
<path d="M28909 22128 c5 -13 280 -666 611 -1453 332 -786 603 -1434 603
-1440 0 -5 -154 -351 -341 -767 -188 -416 -342 -759 -342 -763 0 -3 223 -4
496 -3 l497 3 73 170 c441 1036 1814 4266 1814 4270 0 3 -224 5 -499 5 l-498
0 -344 -939 c-189 -516 -346 -937 -349 -934 -3 2 -161 423 -351 936 l-345 932
-517 3 -517 2 9 -22z"/>
<path d="M34270 22147 c0 -2 275 -655 610 -1452 336 -796 610 -1453 610 -1460
0 -6 -151 -347 -336 -756 -185 -409 -338 -752 -341 -762 -5 -16 21 -17 491
-15 l497 3 139 325 c76 179 499 1173 940 2210 441 1037 804 1891 807 1898 4 9
-99 12 -495 12 -467 0 -500 -1 -507 -17 -3 -10 -157 -430 -342 -933 -184 -503
-338 -918 -342 -922 -3 -4 -94 230 -201 520 -107 290 -263 712 -346 937 l-152
410 -516 3 c-284 1 -516 1 -516 -1z"/>
</g>
</svg>
