<?xml version="1.0" encoding="UTF-8"?>
<svg xmlns="http://www.w3.org/2000/svg" xmlns:xlink="http://www.w3.org/1999/xlink" width="160px" height="33px" viewBox="0 0 152 33" version="1.1">
<g id="surface1">
<path style=" stroke:none;fill-rule:evenodd;fill:rgb(100%,42.745098%,0%);fill-opacity:1;" d="M 14.210938 1.945312 C 9.941406 2.410156 6.253906 4.589844 3.753906 8.121094 C 2.378906 10.058594 1.484375 12.414062 1.210938 14.804688 C 0.957031 17.039062 1.1875 19.191406 1.914062 21.316406 C 2.707031 23.628906 4.128906 25.785156 5.929688 27.390625 C 9.140625 30.257812 13.25 31.558594 17.503906 31.058594 C 22.128906 30.511719 26.273438 27.703125 28.570312 23.554688 C 29.511719 21.847656 30.101562 19.921875 30.308594 17.878906 C 30.375 17.199219 30.363281 15.710938 30.289062 14.992188 C 29.984375 12.179688 28.925781 9.59375 27.160156 7.359375 C 26.699219 6.773438 25.511719 5.582031 24.921875 5.113281 C 22.621094 3.277344 19.992188 2.203125 17.097656 1.921875 C 16.433594 1.859375 14.898438 1.871094 14.210938 1.945312 M 15.40625 5.332031 C 14.324219 5.476562 13.308594 6.378906 13.035156 7.433594 C 12.933594 7.824219 12.941406 8.378906 13.054688 8.738281 C 13.222656 9.285156 13.601562 9.933594 14.140625 10.59375 L 14.34375 10.84375 L 10.0625 15.132812 L 9.769531 14.898438 C 8.59375 13.953125 7.679688 13.601562 6.847656 13.777344 C 5.808594 13.992188 4.933594 14.804688 4.628906 15.835938 C 4.523438 16.1875 4.523438 16.832031 4.625 17.226562 C 4.796875 17.875 5.203125 18.441406 5.769531 18.824219 C 6.234375 19.132812 6.582031 19.246094 7.15625 19.277344 C 7.585938 19.296875 7.660156 19.289062 8.019531 19.171875 C 8.457031 19.03125 9.144531 18.632812 9.699219 18.203125 L 10.066406 17.917969 L 12.203125 20.058594 L 14.34375 22.203125 L 14.101562 22.492188 C 13.605469 23.089844 13.222656 23.753906 13.054688 24.308594 C 12.96875 24.59375 12.957031 24.714844 12.976562 25.109375 C 13.003906 25.683594 13.121094 26.03125 13.4375 26.503906 C 14.410156 27.953125 16.445312 28.140625 17.695312 26.894531 C 18.390625 26.199219 18.675781 25.152344 18.398438 24.292969 C 18.21875 23.730469 17.925781 23.238281 17.210938 22.300781 L 17.121094 22.183594 L 21.390625 17.914062 L 21.796875 18.226562 C 22.742188 18.960938 23.359375 19.246094 24.054688 19.277344 C 24.863281 19.3125 25.507812 19.0625 26.089844 18.488281 C 26.84375 17.742188 27.105469 16.652344 26.769531 15.648438 C 26.625 15.210938 26.480469 14.964844 26.1875 14.640625 C 25.742188 14.15625 25.183594 13.863281 24.496094 13.757812 C 24.195312 13.714844 24.082031 13.714844 23.769531 13.78125 C 23.15625 13.90625 22.476562 14.265625 21.753906 14.847656 L 21.394531 15.136719 L 19.25 12.992188 L 17.109375 10.847656 L 17.40625 10.476562 C 17.8125 9.972656 18.234375 9.242188 18.378906 8.796875 C 18.875 7.269531 17.789062 5.605469 16.128906 5.351562 C 15.800781 5.300781 15.667969 5.300781 15.40625 5.332031 M 15.394531 7.390625 C 15.195312 7.484375 15.03125 7.683594 14.964844 7.914062 C 14.914062 8.082031 14.921875 8.117188 15.039062 8.355469 C 15.164062 8.613281 15.621094 9.296875 15.703125 9.347656 C 15.753906 9.378906 16.183594 8.808594 16.386719 8.441406 C 16.566406 8.117188 16.558594 7.894531 16.351562 7.640625 C 16.105469 7.328125 15.71875 7.230469 15.394531 7.390625 M 13.613281 14.410156 L 11.503906 16.523438 L 13.613281 18.636719 L 15.726562 20.75 L 19.945312 16.523438 L 17.835938 14.410156 L 15.722656 12.296875 L 13.613281 14.410156 M 7 15.808594 C 6.898438 15.855469 6.753906 15.972656 6.683594 16.070312 C 6.570312 16.214844 6.550781 16.28125 6.550781 16.523438 C 6.550781 16.761719 6.570312 16.832031 6.679688 16.972656 C 6.820312 17.160156 6.976562 17.253906 7.214844 17.296875 C 7.40625 17.335938 7.746094 17.167969 8.257812 16.785156 L 8.597656 16.53125 L 8.425781 16.386719 C 8.132812 16.140625 7.503906 15.765625 7.34375 15.742188 C 7.246094 15.730469 7.121094 15.753906 7 15.808594 M 23.851562 15.832031 C 23.722656 15.890625 23.449219 16.070312 23.234375 16.226562 L 22.851562 16.511719 L 22.984375 16.625 C 23.386719 16.953125 24.011719 17.324219 24.167969 17.320312 C 24.335938 17.320312 24.636719 17.152344 24.757812 16.988281 C 25.0625 16.589844 24.898438 15.980469 24.433594 15.785156 C 24.226562 15.699219 24.113281 15.707031 23.851562 15.832031 M 15.574219 23.847656 C 15.308594 24.183594 14.972656 24.738281 14.945312 24.882812 C 14.910156 25.074219 15.035156 25.378906 15.207031 25.527344 C 15.683594 25.925781 16.390625 25.667969 16.507812 25.050781 C 16.527344 24.9375 16.507812 24.839844 16.421875 24.664062 C 16.296875 24.410156 15.789062 23.675781 15.738281 23.675781 C 15.722656 23.675781 15.648438 23.753906 15.574219 23.847656 "/>
<path style=" stroke:none;fill-rule:evenodd;fill:rgb(0%,0%,0%);fill-opacity:1;" d="M 62.679688 5.738281 C 61.867188 5.914062 61.238281 6.464844 60.980469 7.222656 C 60.898438 7.472656 60.886719 7.589844 60.902344 7.976562 C 60.925781 8.535156 61.03125 8.828125 61.335938 9.207031 C 61.777344 9.753906 62.378906 10.042969 63.171875 10.085938 C 64.742188 10.175781 65.9375 8.964844 65.691406 7.535156 C 65.617188 7.097656 65.449219 6.765625 65.132812 6.421875 C 64.542969 5.792969 63.617188 5.535156 62.679688 5.738281 M 131.175781 6.128906 C 130.210938 6.203125 129.214844 6.496094 128.523438 6.90625 C 128.144531 7.132812 127.59375 7.644531 127.328125 8.019531 C 126.789062 8.78125 126.535156 9.625 126.496094 10.796875 L 126.472656 11.519531 L 124.976562 11.519531 L 124.976562 14.945312 L 126.484375 14.945312 L 126.484375 25 L 130.546875 25 L 130.546875 14.945312 L 132.78125 14.945312 L 132.78125 11.519531 L 130.546875 11.519531 L 130.546875 11.253906 C 130.546875 11.109375 130.578125 10.863281 130.617188 10.707031 C 130.804688 9.90625 131.21875 9.613281 132.246094 9.5625 L 132.691406 9.539062 L 132.691406 6.136719 L 132.519531 6.109375 C 132.304688 6.074219 131.808594 6.082031 131.175781 6.128906 M 84.765625 16.066406 L 84.765625 25 L 88.824219 25 L 88.839844 21.011719 C 88.855469 16.609375 88.84375 16.789062 89.152344 16.148438 C 89.34375 15.738281 89.789062 15.277344 90.164062 15.09375 C 91.015625 14.679688 92.199219 14.734375 92.929688 15.226562 C 93.21875 15.417969 93.5625 15.796875 93.707031 16.085938 C 93.753906 16.175781 93.839844 16.394531 93.898438 16.570312 L 94.007812 16.886719 L 94.019531 20.945312 L 94.035156 25 L 98.097656 25 L 98.078125 20.535156 C 98.0625 16.242188 98.058594 16.046875 97.96875 15.609375 C 97.71875 14.398438 97.28125 13.535156 96.542969 12.796875 C 95.828125 12.085938 95.027344 11.667969 94.042969 11.496094 C 93.570312 11.410156 92.59375 11.402344 92.109375 11.472656 C 90.914062 11.65625 89.84375 12.214844 89.171875 13.011719 C 89.019531 13.191406 88.878906 13.339844 88.859375 13.34375 C 88.84375 13.34375 88.828125 11.949219 88.828125 10.238281 L 88.828125 7.128906 L 84.765625 7.128906 L 84.765625 16.066406 M 35.054688 16.527344 L 35.054688 25.007812 L 39.359375 24.988281 C 42.234375 24.972656 43.789062 24.949219 44.046875 24.914062 C 46.683594 24.558594 48.261719 23.105469 48.476562 20.839844 C 48.554688 20.019531 48.4375 19.3125 48.109375 18.609375 C 47.601562 17.527344 46.609375 16.675781 45.539062 16.40625 C 45.421875 16.375 45.3125 16.335938 45.300781 16.316406 C 45.289062 16.292969 45.394531 16.234375 45.53125 16.183594 C 46.585938 15.789062 47.398438 15.039062 47.796875 14.101562 C 48.027344 13.558594 48.085938 13.242188 48.085938 12.476562 C 48.089844 11.605469 48.011719 11.222656 47.699219 10.582031 C 47.109375 9.359375 45.953125 8.546875 44.34375 8.226562 C 43.613281 8.078125 42.609375 8.046875 38.71875 8.046875 L 35.054688 8.042969 L 35.054688 16.527344 M 101.652344 9.894531 L 101.652344 11.519531 L 100.007812 11.519531 L 100.007812 14.945312 L 101.644531 14.945312 L 101.667969 18.066406 C 101.6875 21.34375 101.695312 21.464844 101.910156 22.207031 C 102.335938 23.675781 103.511719 24.617188 105.257812 24.890625 C 105.527344 24.933594 106.214844 24.96875 107.074219 24.988281 L 108.453125 25.015625 L 108.453125 21.535156 L 107.507812 21.515625 C 106.757812 21.5 106.515625 21.480469 106.34375 21.417969 C 106.089844 21.324219 105.875 21.097656 105.808594 20.855469 C 105.777344 20.742188 105.761719 19.675781 105.761719 17.8125 L 105.761719 14.945312 L 108.453125 14.945312 L 108.453125 11.519531 L 105.761719 11.519531 L 105.761719 8.273438 L 101.652344 8.273438 L 101.652344 9.894531 M 39.117188 13.121094 L 39.117188 14.90625 L 40.863281 14.890625 C 42.441406 14.875 42.632812 14.867188 42.839844 14.789062 C 43.164062 14.664062 43.519531 14.417969 43.660156 14.214844 C 44.011719 13.710938 44.054688 12.789062 43.757812 12.210938 C 43.535156 11.789062 43 11.46875 42.363281 11.386719 C 42.152344 11.359375 41.335938 11.335938 40.550781 11.335938 L 39.117188 11.335938 L 39.117188 13.121094 M 72.621094 11.40625 C 70.785156 11.671875 69.230469 12.835938 68.34375 14.601562 C 67.300781 16.679688 67.300781 19.78125 68.339844 21.871094 C 69.554688 24.308594 71.964844 25.554688 74.53125 25.070312 C 75.699219 24.847656 76.71875 24.214844 77.433594 23.265625 L 77.621094 23.019531 L 77.636719 23.175781 C 77.644531 23.261719 77.640625 23.878906 77.628906 24.542969 C 77.605469 25.929688 77.5625 26.1875 77.277344 26.769531 C 76.972656 27.390625 76.367188 27.835938 75.613281 27.996094 C 75.203125 28.082031 74.332031 28.082031 73.925781 27.996094 C 73.359375 27.875 72.824219 27.570312 72.503906 27.191406 C 72.339844 26.992188 72.121094 26.589844 72.121094 26.476562 C 72.121094 26.429688 71.683594 26.417969 70.089844 26.417969 L 68.058594 26.417969 L 68.085938 26.566406 C 68.253906 27.597656 68.613281 28.488281 69.125 29.152344 C 69.589844 29.757812 70.425781 30.4375 71.140625 30.792969 C 72.582031 31.511719 74.507812 31.773438 76.363281 31.507812 C 78.898438 31.144531 80.71875 29.597656 81.40625 27.226562 C 81.699219 26.214844 81.679688 26.75 81.695312 18.773438 L 81.707031 11.519531 L 77.644531 11.519531 L 77.632812 12.488281 L 77.621094 13.460938 L 77.421875 13.195312 C 76.390625 11.804688 74.566406 11.128906 72.621094 11.40625 M 58.796875 11.429688 C 58 11.503906 57.308594 11.753906 56.601562 12.226562 C 56.125 12.542969 55.613281 13.03125 55.285156 13.472656 C 55.171875 13.628906 55.058594 13.757812 55.039062 13.757812 C 55.019531 13.757812 55.003906 13.253906 55.003906 12.636719 L 55.003906 11.519531 L 50.941406 11.519531 L 50.941406 25 L 55.003906 25 L 55.003906 21.777344 C 55.003906 19.777344 55.023438 18.386719 55.050781 18.109375 C 55.199219 16.796875 55.730469 16.15625 56.929688 15.855469 C 57.230469 15.78125 57.507812 15.753906 58.277344 15.734375 L 59.25 15.710938 L 59.25 13.546875 C 59.25 12.355469 59.242188 11.382812 59.238281 11.386719 C 59.230469 11.390625 59.03125 11.410156 58.796875 11.429688 M 61.257812 18.257812 L 61.257812 25 L 65.320312 25 L 65.320312 11.519531 L 61.257812 11.519531 L 61.257812 18.257812 M 109.332031 11.597656 C 109.347656 11.640625 110.574219 14.566406 112.058594 18.09375 C 113.542969 21.625 114.75 24.542969 114.738281 24.585938 C 114.726562 24.625 114.039062 26.167969 113.207031 28.011719 C 112.375 29.855469 111.695312 31.375 111.695312 31.382812 C 111.695312 31.390625 112.675781 31.398438 113.878906 31.398438 L 116.0625 31.398438 L 119.316406 23.734375 C 121.109375 19.515625 123.011719 15.042969 123.542969 13.792969 L 124.511719 11.519531 L 120.105469 11.519531 L 120.054688 11.644531 C 120.027344 11.710938 119.335938 13.601562 118.515625 15.835938 C 117.699219 18.074219 117.015625 19.917969 116.996094 19.9375 C 116.980469 19.957031 116.265625 18.074219 115.410156 15.753906 L 113.851562 11.539062 L 111.582031 11.527344 C 109.433594 11.519531 109.3125 11.519531 109.332031 11.597656 M 133.238281 11.539062 C 133.238281 11.550781 134.460938 14.464844 135.957031 18.011719 C 137.449219 21.5625 138.671875 24.496094 138.671875 24.53125 C 138.671875 24.566406 138.011719 26.058594 137.207031 27.847656 C 136.398438 29.640625 135.710938 31.171875 135.675781 31.253906 L 135.613281 31.402344 L 137.804688 31.390625 L 140 31.378906 L 141.894531 26.921875 C 142.933594 24.46875 144.121094 21.671875 144.535156 20.703125 C 145.625 18.140625 148.28125 11.890625 148.363281 11.6875 L 148.433594 11.519531 L 144.027344 11.519531 L 142.480469 15.742188 C 141.632812 18.066406 140.921875 19.960938 140.910156 19.949219 C 140.894531 19.941406 140.183594 18.039062 139.332031 15.726562 L 137.78125 11.519531 L 135.511719 11.519531 C 134.261719 11.519531 133.238281 11.527344 133.238281 11.539062 M 74.058594 14.96875 C 73.433594 15.105469 72.980469 15.363281 72.542969 15.828125 C 72.035156 16.375 71.769531 17.070312 71.722656 17.988281 C 71.660156 19.167969 71.972656 20.105469 72.644531 20.773438 C 74.046875 22.15625 76.40625 21.761719 77.273438 19.996094 C 77.6875 19.15625 77.753906 17.871094 77.429688 16.910156 C 76.957031 15.492188 75.496094 14.652344 74.058594 14.96875 M 39.117188 19.789062 L 39.117188 21.664062 L 40.910156 21.664062 C 42.84375 21.660156 43.007812 21.644531 43.480469 21.414062 C 43.785156 21.265625 44.148438 20.871094 44.253906 20.582031 C 44.296875 20.460938 44.339844 20.175781 44.355469 19.945312 C 44.410156 19.019531 43.984375 18.367188 43.125 18.050781 C 42.84375 17.945312 42.792969 17.941406 40.976562 17.925781 L 39.117188 17.914062 L 39.117188 19.789062 "/>
<path style=" stroke:none;fill-rule:evenodd;fill:rgb(0%,0%,0%);fill-opacity:1;" d="M 62.679688 5.738281 C 61.867188 5.914062 61.238281 6.464844 60.980469 7.222656 C 60.898438 7.472656 60.886719 7.589844 60.902344 7.976562 C 60.925781 8.535156 61.03125 8.828125 61.335938 9.207031 C 61.777344 9.753906 62.378906 10.042969 63.171875 10.085938 C 64.742188 10.175781 65.9375 8.964844 65.691406 7.535156 C 65.617188 7.097656 65.449219 6.765625 65.132812 6.421875 C 64.542969 5.792969 63.617188 5.535156 62.679688 5.738281 M 131.175781 6.128906 C 130.210938 6.203125 129.214844 6.496094 128.523438 6.90625 C 128.144531 7.132812 127.59375 7.644531 127.328125 8.019531 C 126.789062 8.78125 126.535156 9.625 126.496094 10.796875 L 126.472656 11.519531 L 124.976562 11.519531 L 124.976562 14.945312 L 126.484375 14.945312 L 126.484375 25 L 130.546875 25 L 130.546875 14.945312 L 132.78125 14.945312 L 132.78125 11.519531 L 130.546875 11.519531 L 130.546875 11.253906 C 130.546875 11.109375 130.578125 10.863281 130.617188 10.707031 C 130.804688 9.90625 131.21875 9.613281 132.246094 9.5625 L 132.691406 9.539062 L 132.691406 6.136719 L 132.519531 6.109375 C 132.304688 6.074219 131.808594 6.082031 131.175781 6.128906 M 84.765625 16.066406 L 84.765625 25 L 88.824219 25 L 88.839844 21.011719 C 88.855469 16.609375 88.84375 16.789062 89.152344 16.148438 C 89.34375 15.738281 89.789062 15.277344 90.164062 15.09375 C 91.015625 14.679688 92.199219 14.734375 92.929688 15.226562 C 93.21875 15.417969 93.5625 15.796875 93.707031 16.085938 C 93.753906 16.175781 93.839844 16.394531 93.898438 16.570312 L 94.007812 16.886719 L 94.019531 20.945312 L 94.035156 25 L 98.097656 25 L 98.078125 20.535156 C 98.0625 16.242188 98.058594 16.046875 97.96875 15.609375 C 97.71875 14.398438 97.28125 13.535156 96.542969 12.796875 C 95.828125 12.085938 95.027344 11.667969 94.042969 11.496094 C 93.570312 11.410156 92.59375 11.402344 92.109375 11.472656 C 90.914062 11.65625 89.84375 12.214844 89.171875 13.011719 C 89.019531 13.191406 88.878906 13.339844 88.859375 13.34375 C 88.84375 13.34375 88.828125 11.949219 88.828125 10.238281 L 88.828125 7.128906 L 84.765625 7.128906 L 84.765625 16.066406 M 35.054688 16.527344 L 35.054688 25.007812 L 39.359375 24.988281 C 42.234375 24.972656 43.789062 24.949219 44.046875 24.914062 C 46.683594 24.558594 48.261719 23.105469 48.476562 20.839844 C 48.554688 20.019531 48.4375 19.3125 48.109375 18.609375 C 47.601562 17.527344 46.609375 16.675781 45.539062 16.40625 C 45.421875 16.375 45.3125 16.335938 45.300781 16.316406 C 45.289062 16.292969 45.394531 16.234375 45.53125 16.183594 C 46.585938 15.789062 47.398438 15.039062 47.796875 14.101562 C 48.027344 13.558594 48.085938 13.242188 48.085938 12.476562 C 48.089844 11.605469 48.011719 11.222656 47.699219 10.582031 C 47.109375 9.359375 45.953125 8.546875 44.34375 8.226562 C 43.613281 8.078125 42.609375 8.046875 38.71875 8.046875 L 35.054688 8.042969 L 35.054688 16.527344 M 101.652344 9.894531 L 101.652344 11.519531 L 100.007812 11.519531 L 100.007812 14.945312 L 101.644531 14.945312 L 101.667969 18.066406 C 101.6875 21.34375 101.695312 21.464844 101.910156 22.207031 C 102.335938 23.675781 103.511719 24.617188 105.257812 24.890625 C 105.527344 24.933594 106.214844 24.96875 107.074219 24.988281 L 108.453125 25.015625 L 108.453125 21.535156 L 107.507812 21.515625 C 106.757812 21.5 106.515625 21.480469 106.34375 21.417969 C 106.089844 21.324219 105.875 21.097656 105.808594 20.855469 C 105.777344 20.742188 105.761719 19.675781 105.761719 17.8125 L 105.761719 14.945312 L 108.453125 14.945312 L 108.453125 11.519531 L 105.761719 11.519531 L 105.761719 8.273438 L 101.652344 8.273438 L 101.652344 9.894531 M 39.117188 13.121094 L 39.117188 14.90625 L 40.863281 14.890625 C 42.441406 14.875 42.632812 14.867188 42.839844 14.789062 C 43.164062 14.664062 43.519531 14.417969 43.660156 14.214844 C 44.011719 13.710938 44.054688 12.789062 43.757812 12.210938 C 43.535156 11.789062 43 11.46875 42.363281 11.386719 C 42.152344 11.359375 41.335938 11.335938 40.550781 11.335938 L 39.117188 11.335938 L 39.117188 13.121094 M 72.621094 11.40625 C 70.785156 11.671875 69.230469 12.835938 68.34375 14.601562 C 67.300781 16.679688 67.300781 19.78125 68.339844 21.871094 C 69.554688 24.308594 71.964844 25.554688 74.53125 25.070312 C 75.699219 24.847656 76.71875 24.214844 77.433594 23.265625 L 77.621094 23.019531 L 77.636719 23.175781 C 77.644531 23.261719 77.640625 23.878906 77.628906 24.542969 C 77.605469 25.929688 77.5625 26.1875 77.277344 26.769531 C 76.972656 27.390625 76.367188 27.835938 75.613281 27.996094 C 75.203125 28.082031 74.332031 28.082031 73.925781 27.996094 C 73.359375 27.875 72.824219 27.570312 72.503906 27.191406 C 72.339844 26.992188 72.121094 26.589844 72.121094 26.476562 C 72.121094 26.429688 71.683594 26.417969 70.089844 26.417969 L 68.058594 26.417969 L 68.085938 26.566406 C 68.253906 27.597656 68.613281 28.488281 69.125 29.152344 C 69.589844 29.757812 70.425781 30.4375 71.140625 30.792969 C 72.582031 31.511719 74.507812 31.773438 76.363281 31.507812 C 78.898438 31.144531 80.71875 29.597656 81.40625 27.226562 C 81.699219 26.214844 81.679688 26.75 81.695312 18.773438 L 81.707031 11.519531 L 77.644531 11.519531 L 77.632812 12.488281 L 77.621094 13.460938 L 77.421875 13.195312 C 76.390625 11.804688 74.566406 11.128906 72.621094 11.40625 M 58.796875 11.429688 C 58 11.503906 57.308594 11.753906 56.601562 12.226562 C 56.125 12.542969 55.613281 13.03125 55.285156 13.472656 C 55.171875 13.628906 55.058594 13.757812 55.039062 13.757812 C 55.019531 13.757812 55.003906 13.253906 55.003906 12.636719 L 55.003906 11.519531 L 50.941406 11.519531 L 50.941406 25 L 55.003906 25 L 55.003906 21.777344 C 55.003906 19.777344 55.023438 18.386719 55.050781 18.109375 C 55.199219 16.796875 55.730469 16.15625 56.929688 15.855469 C 57.230469 15.78125 57.507812 15.753906 58.277344 15.734375 L 59.25 15.710938 L 59.25 13.546875 C 59.25 12.355469 59.242188 11.382812 59.238281 11.386719 C 59.230469 11.390625 59.03125 11.410156 58.796875 11.429688 M 61.257812 18.257812 L 61.257812 25 L 65.320312 25 L 65.320312 11.519531 L 61.257812 11.519531 L 61.257812 18.257812 M 109.332031 11.597656 C 109.347656 11.640625 110.574219 14.566406 112.058594 18.09375 C 113.542969 21.625 114.75 24.542969 114.738281 24.585938 C 114.726562 24.625 114.039062 26.167969 113.207031 28.011719 C 112.375 29.855469 111.695312 31.375 111.695312 31.382812 C 111.695312 31.390625 112.675781 31.398438 113.878906 31.398438 L 116.0625 31.398438 L 119.316406 23.734375 C 121.109375 19.515625 123.011719 15.042969 123.542969 13.792969 L 124.511719 11.519531 L 120.105469 11.519531 L 120.054688 11.644531 C 120.027344 11.710938 119.335938 13.601562 118.515625 15.835938 C 117.699219 18.074219 117.015625 19.917969 116.996094 19.9375 C 116.980469 19.957031 116.265625 18.074219 115.410156 15.753906 L 113.851562 11.539062 L 111.582031 11.527344 C 109.433594 11.519531 109.3125 11.519531 109.332031 11.597656 M 133.238281 11.539062 C 133.238281 11.550781 134.460938 14.464844 135.957031 18.011719 C 137.449219 21.5625 138.671875 24.496094 138.671875 24.53125 C 138.671875 24.566406 138.011719 26.058594 137.207031 27.847656 C 136.398438 29.640625 135.710938 31.171875 135.675781 31.253906 L 135.613281 31.402344 L 137.804688 31.390625 L 140 31.378906 L 141.894531 26.921875 C 142.933594 24.46875 144.121094 21.671875 144.535156 20.703125 C 145.625 18.140625 148.28125 11.890625 148.363281 11.6875 L 148.433594 11.519531 L 144.027344 11.519531 L 142.480469 15.742188 C 141.632812 18.066406 140.921875 19.960938 140.910156 19.949219 C 140.894531 19.941406 140.183594 18.039062 139.332031 15.726562 L 137.78125 11.519531 L 135.511719 11.519531 C 134.261719 11.519531 133.238281 11.527344 133.238281 11.539062 M 74.058594 14.96875 C 73.433594 15.105469 72.980469 15.363281 72.542969 15.828125 C 72.035156 16.375 71.769531 17.070312 71.722656 17.988281 C 71.660156 19.167969 71.972656 20.105469 72.644531 20.773438 C 74.046875 22.15625 76.40625 21.761719 77.273438 19.996094 C 77.6875 19.15625 77.753906 17.871094 77.429688 16.910156 C 76.957031 15.492188 75.496094 14.652344 74.058594 14.96875 M 39.117188 19.789062 L 39.117188 21.664062 L 40.910156 21.664062 C 42.84375 21.660156 43.007812 21.644531 43.480469 21.414062 C 43.785156 21.265625 44.148438 20.871094 44.253906 20.582031 C 44.296875 20.460938 44.339844 20.175781 44.355469 19.945312 C 44.410156 19.019531 43.984375 18.367188 43.125 18.050781 C 42.84375 17.945312 42.792969 17.941406 40.976562 17.925781 L 39.117188 17.914062 L 39.117188 19.789062 "/>
<path style=" stroke:none;fill-rule:evenodd;fill:rgb(0%,0%,0%);fill-opacity:1;" d="M 62.679688 5.738281 C 61.867188 5.914062 61.238281 6.464844 60.980469 7.222656 C 60.898438 7.472656 60.886719 7.589844 60.902344 7.976562 C 60.925781 8.535156 61.03125 8.828125 61.335938 9.207031 C 61.777344 9.753906 62.378906 10.042969 63.171875 10.085938 C 64.742188 10.175781 65.9375 8.964844 65.691406 7.535156 C 65.617188 7.097656 65.449219 6.765625 65.132812 6.421875 C 64.542969 5.792969 63.617188 5.535156 62.679688 5.738281 M 131.175781 6.128906 C 130.210938 6.203125 129.214844 6.496094 128.523438 6.90625 C 128.144531 7.132812 127.59375 7.644531 127.328125 8.019531 C 126.789062 8.78125 126.535156 9.625 126.496094 10.796875 L 126.472656 11.519531 L 124.976562 11.519531 L 124.976562 14.945312 L 126.484375 14.945312 L 126.484375 25 L 130.546875 25 L 130.546875 14.945312 L 132.78125 14.945312 L 132.78125 11.519531 L 130.546875 11.519531 L 130.546875 11.253906 C 130.546875 11.109375 130.578125 10.863281 130.617188 10.707031 C 130.804688 9.90625 131.21875 9.613281 132.246094 9.5625 L 132.691406 9.539062 L 132.691406 6.136719 L 132.519531 6.109375 C 132.304688 6.074219 131.808594 6.082031 131.175781 6.128906 M 84.765625 16.066406 L 84.765625 25 L 88.824219 25 L 88.839844 21.011719 C 88.855469 16.609375 88.84375 16.789062 89.152344 16.148438 C 89.34375 15.738281 89.789062 15.277344 90.164062 15.09375 C 91.015625 14.679688 92.199219 14.734375 92.929688 15.226562 C 93.21875 15.417969 93.5625 15.796875 93.707031 16.085938 C 93.753906 16.175781 93.839844 16.394531 93.898438 16.570312 L 94.007812 16.886719 L 94.019531 20.945312 L 94.035156 25 L 98.097656 25 L 98.078125 20.535156 C 98.0625 16.242188 98.058594 16.046875 97.96875 15.609375 C 97.71875 14.398438 97.28125 13.535156 96.542969 12.796875 C 95.828125 12.085938 95.027344 11.667969 94.042969 11.496094 C 93.570312 11.410156 92.59375 11.402344 92.109375 11.472656 C 90.914062 11.65625 89.84375 12.214844 89.171875 13.011719 C 89.019531 13.191406 88.878906 13.339844 88.859375 13.34375 C 88.84375 13.34375 88.828125 11.949219 88.828125 10.238281 L 88.828125 7.128906 L 84.765625 7.128906 L 84.765625 16.066406 M 35.054688 16.527344 L 35.054688 25.007812 L 39.359375 24.988281 C 42.234375 24.972656 43.789062 24.949219 44.046875 24.914062 C 46.683594 24.558594 48.261719 23.105469 48.476562 20.839844 C 48.554688 20.019531 48.4375 19.3125 48.109375 18.609375 C 47.601562 17.527344 46.609375 16.675781 45.539062 16.40625 C 45.421875 16.375 45.3125 16.335938 45.300781 16.316406 C 45.289062 16.292969 45.394531 16.234375 45.53125 16.183594 C 46.585938 15.789062 47.398438 15.039062 47.796875 14.101562 C 48.027344 13.558594 48.085938 13.242188 48.085938 12.476562 C 48.089844 11.605469 48.011719 11.222656 47.699219 10.582031 C 47.109375 9.359375 45.953125 8.546875 44.34375 8.226562 C 43.613281 8.078125 42.609375 8.046875 38.71875 8.046875 L 35.054688 8.042969 L 35.054688 16.527344 M 101.652344 9.894531 L 101.652344 11.519531 L 100.007812 11.519531 L 100.007812 14.945312 L 101.644531 14.945312 L 101.667969 18.066406 C 101.6875 21.34375 101.695312 21.464844 101.910156 22.207031 C 102.335938 23.675781 103.511719 24.617188 105.257812 24.890625 C 105.527344 24.933594 106.214844 24.96875 107.074219 24.988281 L 108.453125 25.015625 L 108.453125 21.535156 L 107.507812 21.515625 C 106.757812 21.5 106.515625 21.480469 106.34375 21.417969 C 106.089844 21.324219 105.875 21.097656 105.808594 20.855469 C 105.777344 20.742188 105.761719 19.675781 105.761719 17.8125 L 105.761719 14.945312 L 108.453125 14.945312 L 108.453125 11.519531 L 105.761719 11.519531 L 105.761719 8.273438 L 101.652344 8.273438 L 101.652344 9.894531 M 39.117188 13.121094 L 39.117188 14.90625 L 40.863281 14.890625 C 42.441406 14.875 42.632812 14.867188 42.839844 14.789062 C 43.164062 14.664062 43.519531 14.417969 43.660156 14.214844 C 44.011719 13.710938 44.054688 12.789062 43.757812 12.210938 C 43.535156 11.789062 43 11.46875 42.363281 11.386719 C 42.152344 11.359375 41.335938 11.335938 40.550781 11.335938 L 39.117188 11.335938 L 39.117188 13.121094 M 72.621094 11.40625 C 70.785156 11.671875 69.230469 12.835938 68.34375 14.601562 C 67.300781 16.679688 67.300781 19.78125 68.339844 21.871094 C 69.554688 24.308594 71.964844 25.554688 74.53125 25.070312 C 75.699219 24.847656 76.71875 24.214844 77.433594 23.265625 L 77.621094 23.019531 L 77.636719 23.175781 C 77.644531 23.261719 77.640625 23.878906 77.628906 24.542969 C 77.605469 25.929688 77.5625 26.1875 77.277344 26.769531 C 76.972656 27.390625 76.367188 27.835938 75.613281 27.996094 C 75.203125 28.082031 74.332031 28.082031 73.925781 27.996094 C 73.359375 27.875 72.824219 27.570312 72.503906 27.191406 C 72.339844 26.992188 72.121094 26.589844 72.121094 26.476562 C 72.121094 26.429688 71.683594 26.417969 70.089844 26.417969 L 68.058594 26.417969 L 68.085938 26.566406 C 68.253906 27.597656 68.613281 28.488281 69.125 29.152344 C 69.589844 29.757812 70.425781 30.4375 71.140625 30.792969 C 72.582031 31.511719 74.507812 31.773438 76.363281 31.507812 C 78.898438 31.144531 80.71875 29.597656 81.40625 27.226562 C 81.699219 26.214844 81.679688 26.75 81.695312 18.773438 L 81.707031 11.519531 L 77.644531 11.519531 L 77.632812 12.488281 L 77.621094 13.460938 L 77.421875 13.195312 C 76.390625 11.804688 74.566406 11.128906 72.621094 11.40625 M 58.796875 11.429688 C 58 11.503906 57.308594 11.753906 56.601562 12.226562 C 56.125 12.542969 55.613281 13.03125 55.285156 13.472656 C 55.171875 13.628906 55.058594 13.757812 55.039062 13.757812 C 55.019531 13.757812 55.003906 13.253906 55.003906 12.636719 L 55.003906 11.519531 L 50.941406 11.519531 L 50.941406 25 L 55.003906 25 L 55.003906 21.777344 C 55.003906 19.777344 55.023438 18.386719 55.050781 18.109375 C 55.199219 16.796875 55.730469 16.15625 56.929688 15.855469 C 57.230469 15.78125 57.507812 15.753906 58.277344 15.734375 L 59.25 15.710938 L 59.25 13.546875 C 59.25 12.355469 59.242188 11.382812 59.238281 11.386719 C 59.230469 11.390625 59.03125 11.410156 58.796875 11.429688 M 61.257812 18.257812 L 61.257812 25 L 65.320312 25 L 65.320312 11.519531 L 61.257812 11.519531 L 61.257812 18.257812 M 109.332031 11.597656 C 109.347656 11.640625 110.574219 14.566406 112.058594 18.09375 C 113.542969 21.625 114.75 24.542969 114.738281 24.585938 C 114.726562 24.625 114.039062 26.167969 113.207031 28.011719 C 112.375 29.855469 111.695312 31.375 111.695312 31.382812 C 111.695312 31.390625 112.675781 31.398438 113.878906 31.398438 L 116.0625 31.398438 L 119.316406 23.734375 C 121.109375 19.515625 123.011719 15.042969 123.542969 13.792969 L 124.511719 11.519531 L 120.105469 11.519531 L 120.054688 11.644531 C 120.027344 11.710938 119.335938 13.601562 118.515625 15.835938 C 117.699219 18.074219 117.015625 19.917969 116.996094 19.9375 C 116.980469 19.957031 116.265625 18.074219 115.410156 15.753906 L 113.851562 11.539062 L 111.582031 11.527344 C 109.433594 11.519531 109.3125 11.519531 109.332031 11.597656 M 133.238281 11.539062 C 133.238281 11.550781 134.460938 14.464844 135.957031 18.011719 C 137.449219 21.5625 138.671875 24.496094 138.671875 24.53125 C 138.671875 24.566406 138.011719 26.058594 137.207031 27.847656 C 136.398438 29.640625 135.710938 31.171875 135.675781 31.253906 L 135.613281 31.402344 L 137.804688 31.390625 L 140 31.378906 L 141.894531 26.921875 C 142.933594 24.46875 144.121094 21.671875 144.535156 20.703125 C 145.625 18.140625 148.28125 11.890625 148.363281 11.6875 L 148.433594 11.519531 L 144.027344 11.519531 L 142.480469 15.742188 C 141.632812 18.066406 140.921875 19.960938 140.910156 19.949219 C 140.894531 19.941406 140.183594 18.039062 139.332031 15.726562 L 137.78125 11.519531 L 135.511719 11.519531 C 134.261719 11.519531 133.238281 11.527344 133.238281 11.539062 M 74.058594 14.96875 C 73.433594 15.105469 72.980469 15.363281 72.542969 15.828125 C 72.035156 16.375 71.769531 17.070312 71.722656 17.988281 C 71.660156 19.167969 71.972656 20.105469 72.644531 20.773438 C 74.046875 22.15625 76.40625 21.761719 77.273438 19.996094 C 77.6875 19.15625 77.753906 17.871094 77.429688 16.910156 C 76.957031 15.492188 75.496094 14.652344 74.058594 14.96875 M 39.117188 19.789062 L 39.117188 21.664062 L 40.910156 21.664062 C 42.84375 21.660156 43.007812 21.644531 43.480469 21.414062 C 43.785156 21.265625 44.148438 20.871094 44.253906 20.582031 C 44.296875 20.460938 44.339844 20.175781 44.355469 19.945312 C 44.410156 19.019531 43.984375 18.367188 43.125 18.050781 C 42.84375 17.945312 42.792969 17.941406 40.976562 17.925781 L 39.117188 17.914062 L 39.117188 19.789062 "/>
<path style=" stroke:none;fill-rule:evenodd;fill:rgb(98.431373%,42.352941%,1.568627%);fill-opacity:1;" d="M 15.328125 1.863281 C 15.585938 1.871094 15.996094 1.871094 16.242188 1.863281 C 16.484375 1.855469 16.273438 1.847656 15.769531 1.847656 C 15.269531 1.847656 15.070312 1.855469 15.328125 1.863281 M 22.824219 3.667969 C 22.835938 3.683594 23.0625 3.828125 23.324219 3.988281 C 24.363281 4.617188 25.09375 5.199219 26.070312 6.167969 C 26.828125 6.925781 27.332031 7.53125 27.851562 8.3125 C 28.03125 8.582031 28.195312 8.820312 28.222656 8.84375 C 28.292969 8.917969 28.222656 8.796875 27.882812 8.292969 C 26.863281 6.757812 25.390625 5.300781 23.804688 4.246094 C 23.378906 3.964844 22.769531 3.605469 22.824219 3.667969 M 7.640625 4.261719 C 6.140625 5.269531 4.808594 6.566406 3.761719 8.042969 C 3.449219 8.488281 3.410156 8.546875 3.4375 8.546875 C 3.449219 8.546875 3.5625 8.398438 3.6875 8.214844 C 4.730469 6.703125 6.136719 5.3125 7.644531 4.304688 C 8.171875 3.953125 8.203125 3.929688 8.160156 3.929688 C 8.148438 3.929688 7.910156 4.082031 7.640625 4.261719 M 14.445312 5.65625 C 13.976562 5.90625 13.488281 6.410156 13.246094 6.894531 C 13.140625 7.105469 13.054688 7.3125 13.054688 7.351562 C 13.054688 7.394531 13.105469 7.3125 13.164062 7.167969 C 13.4375 6.503906 13.886719 6 14.492188 5.679688 C 14.691406 5.574219 14.835938 5.488281 14.8125 5.488281 C 14.785156 5.488281 14.621094 5.5625 14.445312 5.65625 M 132.710938 7.839844 C 132.710938 8.820312 132.71875 9.214844 132.726562 8.714844 C 132.734375 8.21875 132.734375 7.414062 132.726562 6.933594 C 132.71875 6.449219 132.710938 6.859375 132.710938 7.839844 M 14.925781 8.195312 C 14.921875 8.3125 15.507812 9.226562 15.675781 9.367188 C 15.730469 9.414062 15.777344 9.378906 15.953125 9.15625 C 16.171875 8.878906 16.523438 8.320312 16.523438 8.25 C 16.523438 8.226562 16.441406 8.34375 16.34375 8.511719 C 16.113281 8.90625 15.753906 9.378906 15.703125 9.347656 C 15.632812 9.304688 15.226562 8.710938 15.074219 8.433594 C 14.996094 8.28125 14.925781 8.175781 14.925781 8.195312 M 101.628906 9.871094 C 101.628906 10.789062 101.632812 11.164062 101.640625 10.707031 C 101.648438 10.246094 101.648438 9.496094 101.640625 9.039062 C 101.632812 8.578125 101.628906 8.953125 101.628906 9.871094 M 105.78125 9.871094 C 105.78125 10.789062 105.789062 11.164062 105.796875 10.707031 C 105.800781 10.246094 105.800781 9.496094 105.796875 9.039062 C 105.789062 8.578125 105.78125 8.953125 105.78125 9.871094 M 13.480469 9.671875 C 13.566406 9.835938 14.066406 10.527344 14.234375 10.707031 L 14.351562 10.835938 L 10.0625 15.132812 L 9.777344 14.902344 C 9.484375 14.667969 9.023438 14.34375 9.105469 14.433594 C 9.144531 14.472656 9.316406 14.605469 9.992188 15.117188 C 10.058594 15.164062 10.363281 14.878906 12.226562 13.007812 L 14.386719 10.84375 L 14.152344 10.554688 C 14.023438 10.390625 13.8125 10.105469 13.6875 9.917969 C 13.421875 9.523438 13.378906 9.472656 13.480469 9.671875 M 17.75 9.953125 C 17.691406 10.046875 17.511719 10.285156 17.351562 10.484375 L 17.0625 10.847656 L 19.230469 13.015625 L 21.398438 15.1875 L 21.679688 14.953125 C 22.050781 14.640625 22.433594 14.382812 22.886719 14.140625 C 23.289062 13.925781 23.332031 13.867188 22.945312 14.058594 C 22.597656 14.234375 22.019531 14.621094 21.6875 14.898438 L 21.398438 15.140625 L 19.253906 12.992188 L 17.109375 10.847656 L 17.421875 10.457031 C 17.71875 10.082031 17.921875 9.78125 17.875 9.78125 C 17.863281 9.78125 17.808594 9.859375 17.75 9.953125 M 39.140625 11.390625 C 39.128906 11.425781 39.121094 12.230469 39.128906 13.1875 L 39.140625 14.921875 L 39.164062 11.382812 L 40.542969 11.371094 L 41.925781 11.355469 L 40.542969 11.347656 C 39.46875 11.335938 39.15625 11.347656 39.140625 11.390625 M 59.25 13.550781 L 59.25 15.71875 L 57.945312 15.75 L 58.621094 15.757812 L 59.292969 15.769531 L 59.292969 13.574219 C 59.292969 12.367188 59.285156 11.382812 59.269531 11.382812 C 59.257812 11.382812 59.25 12.355469 59.25 13.550781 M 50.917969 18.257812 C 50.917969 21.980469 50.921875 23.496094 50.929688 21.628906 C 50.9375 19.757812 50.9375 16.714844 50.929688 14.863281 C 50.921875 13.011719 50.917969 14.539062 50.917969 18.257812 M 61.234375 18.257812 C 61.234375 21.980469 61.238281 23.496094 61.246094 21.628906 C 61.25 19.757812 61.25 16.714844 61.246094 14.863281 C 61.238281 13.011719 61.234375 14.539062 61.234375 18.257812 M 77.589844 12.453125 C 77.582031 12.96875 77.589844 13.390625 77.609375 13.390625 C 77.628906 13.390625 77.644531 12.96875 77.644531 12.453125 C 77.644531 11.941406 77.632812 11.519531 77.621094 11.519531 C 77.609375 11.519531 77.59375 11.941406 77.589844 12.453125 M 99.984375 13.230469 C 99.984375 14.1875 99.992188 14.585938 100 14.113281 C 100.003906 13.644531 100.003906 12.863281 100 12.378906 C 99.992188 11.890625 99.984375 12.277344 99.984375 13.230469 M 108.476562 13.230469 C 108.476562 14.1875 108.480469 14.585938 108.488281 14.113281 C 108.496094 13.644531 108.496094 12.863281 108.488281 12.378906 C 108.480469 11.890625 108.476562 12.277344 108.476562 13.230469 M 13.589844 14.386719 L 11.457031 16.523438 L 13.589844 18.660156 L 15.726562 20.796875 L 17.855469 18.660156 L 19.988281 16.523438 L 18.792969 15.3125 C 18.132812 14.644531 17.175781 13.683594 16.660156 13.175781 L 15.722656 12.25 L 13.589844 14.386719 M 13.613281 14.410156 L 11.503906 16.523438 L 13.613281 18.636719 L 15.726562 20.75 L 19.945312 16.523438 L 17.835938 14.410156 L 15.722656 12.296875 L 13.613281 14.410156 M 6.382812 13.910156 C 5.976562 14.078125 5.722656 14.246094 5.417969 14.542969 L 5.136719 14.820312 L 5.441406 14.546875 C 5.765625 14.257812 6.140625 14.035156 6.539062 13.894531 C 6.671875 13.847656 6.746094 13.808594 6.710938 13.808594 C 6.671875 13.804688 6.523438 13.851562 6.382812 13.910156 M 25.605469 14.199219 C 25.988281 14.453125 26.308594 14.785156 26.515625 15.140625 C 26.59375 15.273438 26.65625 15.359375 26.65625 15.332031 C 26.65625 15.253906 26.339844 14.796875 26.140625 14.585938 C 25.949219 14.386719 25.496094 14.054688 25.34375 14 C 25.300781 13.984375 25.417969 14.074219 25.605469 14.199219 M 101.628906 17.664062 C 101.628906 19.171875 101.632812 19.785156 101.640625 19.023438 C 101.648438 18.257812 101.648438 17.027344 101.640625 16.28125 C 101.632812 15.535156 101.628906 16.15625 101.628906 17.664062 M 105.78125 17.800781 C 105.78125 19.386719 105.789062 20.027344 105.796875 19.226562 C 105.800781 18.425781 105.800781 17.132812 105.796875 16.347656 C 105.789062 15.5625 105.78125 16.21875 105.78125 17.800781 M 130.570312 19.972656 C 130.570312 22.75 130.574219 23.886719 130.582031 22.5 C 130.585938 21.109375 130.585938 18.835938 130.582031 17.449219 C 130.574219 16.058594 130.570312 17.195312 130.570312 19.972656 M 30.375 16.5 C 30.375 17.039062 30.378906 17.261719 30.386719 16.992188 C 30.398438 16.722656 30.398438 16.277344 30.386719 16.007812 C 30.378906 15.738281 30.375 15.960938 30.375 16.5 M 23.882812 15.765625 C 23.617188 15.890625 23.640625 15.917969 23.910156 15.804688 C 24.191406 15.6875 24.40625 15.71875 24.628906 15.914062 C 24.832031 16.09375 24.878906 16.1875 24.921875 16.472656 C 24.957031 16.695312 24.957031 16.699219 24.960938 16.527344 C 24.96875 16.277344 24.8125 15.96875 24.601562 15.832031 C 24.363281 15.671875 24.125 15.652344 23.882812 15.765625 M 23.226562 16.191406 C 23.019531 16.347656 22.847656 16.496094 22.851562 16.523438 C 22.859375 16.589844 23.4375 17.019531 23.707031 17.160156 C 23.957031 17.289062 23.941406 17.277344 23.445312 16.949219 C 23.265625 16.832031 23.058594 16.6875 22.984375 16.625 L 22.851562 16.511719 L 23.214844 16.25 C 23.609375 15.957031 23.675781 15.90625 23.636719 15.90625 C 23.621094 15.90625 23.4375 16.035156 23.226562 16.191406 M 98.113281 20.75 C 98.113281 23.101562 98.121094 24.0625 98.125 22.886719 C 98.132812 21.710938 98.132812 19.789062 98.125 18.613281 C 98.121094 17.4375 98.113281 18.398438 98.113281 20.75 M 94.007812 21.140625 C 94.007812 23.277344 94.011719 24.144531 94.019531 23.066406 C 94.027344 21.992188 94.027344 20.242188 94.019531 19.183594 C 94.011719 18.121094 94.007812 19.003906 94.007812 21.140625 M 4.902344 17.898438 C 5.125 18.367188 5.867188 18.996094 6.34375 19.125 C 6.40625 19.140625 6.335938 19.09375 6.183594 19.023438 C 5.652344 18.765625 5.296875 18.4375 4.894531 17.84375 C 4.863281 17.796875 4.867188 17.820312 4.902344 17.898438 M 9.714844 18.136719 C 9.527344 18.285156 9.289062 18.464844 9.183594 18.535156 C 9.078125 18.601562 8.992188 18.667969 8.992188 18.679688 C 8.992188 18.71875 9.179688 18.59375 9.613281 18.261719 L 10.066406 17.917969 L 12.203125 20.0625 L 14.34375 22.203125 L 14.101562 22.492188 C 13.824219 22.828125 13.441406 23.40625 13.265625 23.753906 C 13.066406 24.148438 13.132812 24.09375 13.355469 23.679688 C 13.582031 23.253906 13.875 22.820312 14.1875 22.449219 L 14.394531 22.203125 L 12.226562 20.035156 L 10.058594 17.863281 L 9.714844 18.136719 M 19.226562 20.035156 L 17.066406 22.195312 L 17.234375 22.398438 C 17.324219 22.507812 17.492188 22.730469 17.605469 22.886719 C 17.71875 23.042969 17.820312 23.171875 17.832031 23.171875 C 17.867188 23.171875 17.707031 22.949219 17.15625 22.234375 C 17.136719 22.203125 17.949219 21.355469 19.253906 20.050781 L 21.390625 17.914062 L 21.84375 18.261719 C 22.09375 18.453125 22.339844 18.628906 22.390625 18.652344 C 22.445312 18.679688 22.4375 18.667969 22.367188 18.617188 C 22.304688 18.570312 22.0625 18.386719 21.828125 18.203125 C 21.597656 18.019531 21.402344 17.871094 21.394531 17.871094 C 21.390625 17.871094 20.414062 18.84375 19.226562 20.035156 M 26.355469 18.132812 C 26.078125 18.539062 25.542969 18.9375 25.015625 19.128906 C 24.925781 19.164062 24.886719 19.191406 24.929688 19.195312 C 24.96875 19.195312 25.171875 19.113281 25.382812 19.007812 C 25.777344 18.808594 26.316406 18.328125 26.488281 18.019531 C 26.613281 17.792969 26.558594 17.84375 26.355469 18.132812 M 39.140625 19.789062 C 39.140625 20.835938 39.144531 21.261719 39.152344 20.738281 C 39.160156 20.21875 39.160156 19.363281 39.152344 18.84375 C 39.144531 18.320312 39.140625 18.746094 39.140625 19.789062 M 77.617188 24.085938 C 77.617188 24.652344 77.625 24.882812 77.632812 24.601562 C 77.640625 24.320312 77.640625 23.855469 77.632812 23.574219 C 77.625 23.289062 77.617188 23.523438 77.617188 24.085938 M 15.550781 23.824219 C 15.390625 24.027344 15.148438 24.382812 15.089844 24.5 C 15.058594 24.570312 15.085938 24.535156 15.449219 24.023438 C 15.578125 23.847656 15.699219 23.699219 15.726562 23.691406 C 15.777344 23.675781 16.191406 24.242188 16.386719 24.597656 C 16.460938 24.730469 16.523438 24.820312 16.523438 24.796875 C 16.523438 24.679688 15.820312 23.628906 15.742188 23.628906 C 15.722656 23.628906 15.636719 23.71875 15.550781 23.824219 M 27.816406 24.78125 C 26.832031 26.230469 25.410156 27.644531 23.964844 28.621094 C 23.519531 28.921875 23.292969 29.089844 23.460938 29 C 24.1875 28.597656 25.640625 27.414062 26.429688 26.574219 C 26.984375 25.984375 28.164062 24.453125 28.0625 24.453125 C 28.050781 24.453125 27.941406 24.601562 27.816406 24.78125 M 3.75 24.988281 C 4.621094 26.273438 6.171875 27.800781 7.417969 28.605469 C 7.695312 28.785156 7.570312 28.683594 6.9375 28.21875 C 5.808594 27.386719 4.527344 26.070312 3.792969 24.988281 C 3.714844 24.871094 3.636719 24.773438 3.625 24.773438 C 3.613281 24.773438 3.667969 24.871094 3.75 24.988281 M 13.148438 25.988281 C 13.144531 26.042969 13.425781 26.519531 13.585938 26.730469 C 13.722656 26.90625 14.15625 27.261719 14.355469 27.359375 C 14.429688 27.394531 14.453125 27.398438 14.40625 27.367188 C 13.851562 26.992188 13.554688 26.679688 13.277344 26.171875 C 13.207031 26.042969 13.148438 25.960938 13.148438 25.988281 M 18.121094 26.269531 C 17.847656 26.800781 17.347656 27.238281 16.714844 27.5 C 16.570312 27.554688 16.488281 27.605469 16.53125 27.605469 C 16.570312 27.605469 16.777344 27.519531 16.984375 27.414062 C 17.449219 27.183594 17.933594 26.722656 18.160156 26.289062 C 18.242188 26.128906 18.304688 25.992188 18.296875 25.984375 C 18.285156 25.972656 18.207031 26.105469 18.121094 26.269531 M 68.042969 26.40625 C 68.03125 26.425781 68.9375 26.4375 70.054688 26.429688 C 71.660156 26.417969 72.097656 26.429688 72.132812 26.472656 C 72.164062 26.519531 72.167969 26.515625 72.152344 26.464844 C 72.136719 26.40625 71.863281 26.394531 70.097656 26.382812 C 68.980469 26.378906 68.054688 26.386719 68.042969 26.40625 "/>
<path style=" stroke:none;fill-rule:evenodd;fill:rgb(1.568627%,1.568627%,1.568627%);fill-opacity:1;" d="M 84.742188 16.066406 C 84.742188 20.992188 84.746094 23 84.753906 20.53125 C 84.757812 18.058594 84.757812 14.027344 84.753906 11.570312 C 84.746094 9.117188 84.742188 11.136719 84.742188 16.066406 M 88.835938 10.226562 C 88.832031 11.941406 88.84375 13.347656 88.859375 13.347656 C 88.890625 13.347656 88.890625 11.046875 88.859375 8.203125 C 88.851562 7.601562 88.84375 8.511719 88.835938 10.226562 M 35.03125 16.523438 C 35.03125 21.199219 35.039062 23.117188 35.042969 20.789062 C 35.050781 18.460938 35.050781 14.632812 35.042969 12.289062 C 35.039062 9.941406 35.03125 11.847656 35.03125 16.523438 M 102.667969 8.261719 C 103.238281 8.269531 104.175781 8.269531 104.746094 8.261719 C 105.316406 8.253906 104.847656 8.25 103.707031 8.25 C 102.566406 8.25 102.097656 8.253906 102.667969 8.261719 M 55.011719 12.625 C 55.003906 13.679688 55.023438 13.867188 55.121094 13.703125 C 55.140625 13.671875 55.132812 13.664062 55.101562 13.683594 C 55.0625 13.707031 55.046875 13.421875 55.039062 12.605469 L 55.023438 11.496094 L 55.011719 12.625 M 65.339844 18.257812 C 65.339844 21.980469 65.347656 23.496094 65.351562 21.628906 C 65.359375 19.757812 65.359375 16.714844 65.351562 14.863281 C 65.347656 13.011719 65.339844 14.539062 65.339844 18.257812 M 81.726562 18.375 C 81.726562 22.15625 81.734375 23.703125 81.738281 21.8125 C 81.746094 19.921875 81.746094 16.828125 81.738281 14.933594 C 81.734375 13.042969 81.726562 14.589844 81.726562 18.375 M 124.953125 13.230469 C 124.953125 14.1875 124.957031 14.585938 124.964844 14.113281 C 124.972656 13.644531 124.972656 12.863281 124.964844 12.378906 C 124.957031 11.890625 124.953125 12.277344 124.953125 13.230469 M 126.460938 19.972656 C 126.460938 22.75 126.464844 23.886719 126.472656 22.5 C 126.480469 21.109375 126.480469 18.835938 126.472656 17.449219 C 126.464844 16.058594 126.460938 17.195312 126.460938 19.972656 M 88.847656 21.160156 C 88.847656 23.285156 88.855469 24.15625 88.859375 23.09375 C 88.867188 22.03125 88.867188 20.292969 88.859375 19.230469 C 88.855469 18.167969 88.847656 19.039062 88.847656 21.160156 M 55.023438 21.6875 C 55.023438 23.523438 55.03125 24.265625 55.039062 23.339844 C 55.042969 22.414062 55.042969 20.914062 55.039062 20.003906 C 55.03125 19.09375 55.023438 19.851562 55.023438 21.6875 M 107.597656 21.515625 L 108.453125 21.53125 L 108.476562 25.023438 L 108.488281 23.253906 L 108.5 21.480469 L 106.742188 21.503906 L 107.597656 21.515625 "/>
</g>
</svg>
